<svg width="176" height="38" viewBox="0 0 176 38" fill="none" xmlns="http://www.w3.org/2000/svg">
<path d="M5.50121 28.5427C3.85237 28.5427 2.52571 28.1286 1.52124 27.3004C0.535727 26.4534 0.0429688 25.3146 0.0429688 23.884C0.0429688 22.3782 0.516775 21.2206 1.46439 20.4112C2.43095 19.583 3.79551 19.1689 5.55807 19.1689C7.43434 19.1689 9.02633 19.5453 10.334 20.2983V19.5924C10.334 18.5195 10.0024 17.7289 9.33904 17.2207C8.69466 16.6936 7.67124 16.4301 6.26878 16.4301C5.43488 16.4301 4.61993 16.5148 3.82394 16.6842C3.0469 16.8348 2.34566 17.0513 1.72024 17.3336V15.0184C2.28881 14.7549 3.02795 14.5478 3.93765 14.3972C4.84736 14.2278 5.72864 14.1431 6.58149 14.1431C8.8368 14.1431 10.5046 14.6419 11.5849 15.6396C12.6841 16.6184 13.2337 17.983 13.2337 19.7336V28.1192H10.533V26.5945C9.94551 27.2345 9.24428 27.7239 8.42933 28.0627C7.63334 28.3827 6.6573 28.5427 5.50121 28.5427ZM6.21192 26.3687C7.12163 26.3687 7.94605 26.1899 8.68519 25.8322C9.42432 25.4746 9.97394 24.9758 10.334 24.3358V22.5005C9.10213 21.71 7.7281 21.3147 6.21192 21.3147C5.11269 21.3147 4.28827 21.5312 3.73865 21.9641C3.20799 22.3782 2.94266 23.0182 2.94266 23.884C2.94266 25.5405 4.03241 26.3687 6.21192 26.3687Z" fill="#00023B"/>
<path d="M16.5125 7.25391H19.3838V28.1192H16.5125V7.25391Z" fill="#00023B"/>
<path d="M22.8079 7.25391H25.6791V28.1192H22.8079V7.25391Z" fill="#00023B"/>
<path d="M36.2956 28.5427C34.7794 28.5427 33.4338 28.2604 32.2587 27.6957C31.0837 27.131 30.1645 26.3122 29.5012 25.2393C28.8568 24.1476 28.5346 22.8582 28.5346 21.3712C28.5346 19.8841 28.8568 18.6042 29.5012 17.5313C30.1645 16.4395 31.0837 15.6019 32.2587 15.0184C33.4527 14.4349 34.8173 14.1431 36.3524 14.1431C38.4372 14.1431 40.1049 14.5478 41.3558 15.3572V17.7007C40.1239 16.8536 38.5509 16.4301 36.6367 16.4301C35.0826 16.4301 33.8223 16.8536 32.8557 17.7007C31.9081 18.5289 31.4343 19.7524 31.4343 21.3712C31.4343 22.9899 31.9081 24.2134 32.8557 25.0417C33.8033 25.8699 35.0447 26.284 36.5798 26.284C38.494 26.284 40.1429 25.8322 41.5264 24.9287V27.2439C40.863 27.6957 40.1049 28.0251 39.2521 28.2322C38.4182 28.4392 37.4327 28.5427 36.2956 28.5427Z" fill="#00023B"/>
<path d="M49.1165 28.5427C47.4677 28.5427 46.141 28.1286 45.1365 27.3004C44.151 26.4534 43.6583 25.3146 43.6583 23.884C43.6583 22.3782 44.1321 21.2206 45.0797 20.4112C46.0463 19.583 47.4108 19.1689 49.1734 19.1689C51.0496 19.1689 52.6416 19.5453 53.9493 20.2983V19.5924C53.9493 18.5195 53.6177 17.7289 52.9543 17.2207C52.31 16.6936 51.2865 16.4301 49.8841 16.4301C49.0502 16.4301 48.2352 16.5148 47.4392 16.6842C46.6622 16.8348 45.961 17.0513 45.3355 17.3336V15.0184C45.9041 14.7549 46.6432 14.5478 47.553 14.3972C48.4627 14.2278 49.3439 14.1431 50.1968 14.1431C52.4521 14.1431 54.1199 14.6419 55.2002 15.6396C56.2994 16.6184 56.849 17.983 56.849 19.7336V28.1192H54.1483V26.5945C53.5608 27.2345 52.8596 27.7239 52.0446 28.0627C51.2486 28.3827 50.2726 28.5427 49.1165 28.5427ZM49.8272 26.3687C50.7369 26.3687 51.5613 26.1899 52.3005 25.8322C53.0396 25.4746 53.5892 24.9758 53.9493 24.3358V22.5005C52.7174 21.71 51.3434 21.3147 49.8272 21.3147C48.728 21.3147 47.9036 21.5312 47.354 21.9641C46.8233 22.3782 46.558 23.0182 46.558 23.884C46.558 25.5405 47.6477 26.3687 49.8272 26.3687Z" fill="#00023B"/>
<path d="M68.5995 28.5427C67.3676 28.5427 66.2968 28.3545 65.3871 27.978C64.4963 27.5828 63.6719 26.971 62.9138 26.1428V28.1192H60.1278V7.25391H62.9991V16.3737C63.6245 15.6396 64.43 15.0843 65.4155 14.7078C66.401 14.3314 67.4623 14.1431 68.5995 14.1431C69.964 14.1431 71.1865 14.4537 72.2667 15.0749C73.366 15.6772 74.2188 16.5242 74.8253 17.616C75.4507 18.7077 75.7634 19.9594 75.7634 21.3712C75.7634 22.8017 75.4507 24.0629 74.8253 25.1546C74.2188 26.2275 73.366 27.0651 72.2667 27.6675C71.1865 28.251 69.964 28.5427 68.5995 28.5427ZM67.9456 26.284C68.8743 26.284 69.7082 26.0863 70.4473 25.691C71.2054 25.2769 71.7929 24.6934 72.2099 23.9405C72.6458 23.1876 72.8637 22.3311 72.8637 21.3712C72.8637 20.4112 72.6458 19.5547 72.2099 18.8018C71.7929 18.0489 71.2054 17.4654 70.4473 17.0513C69.7082 16.6372 68.8743 16.4301 67.9456 16.4301C66.7895 16.4301 65.7566 16.7407 64.8469 17.3619C63.9372 17.983 63.3213 18.8112 62.9991 19.8465V22.8958C63.3592 23.9311 63.9751 24.7593 64.8469 25.3805C65.7377 25.9828 66.7706 26.284 67.9456 26.284Z" fill="#00023B"/>
<path d="M78.6107 7.25391H81.482V28.1192H78.6107V7.25391Z" fill="#00023B"/>
<path d="M92.4111 28.5427C89.8905 28.5427 87.91 27.9216 86.4696 26.6793C85.0482 25.4181 84.3375 23.6487 84.3375 21.3712C84.3375 19.15 84.9724 17.3901 86.2421 16.0913C87.5309 14.7925 89.3598 14.1431 91.7288 14.1431C93.3019 14.1431 94.638 14.4443 95.7372 15.0466C96.8364 15.6301 97.6609 16.4489 98.2105 17.503C98.779 18.5383 99.0633 19.7242 99.0633 21.0606V22.4723H87.0666C87.1613 23.7523 87.7015 24.7122 88.687 25.3522C89.6915 25.9734 91.0465 26.284 92.7522 26.284C93.624 26.284 94.5053 26.2087 95.3961 26.0581C96.2868 25.8887 97.0733 25.6722 97.7556 25.4087V27.6957C97.1492 27.9404 96.3437 28.138 95.3392 28.2886C94.3537 28.458 93.3777 28.5427 92.4111 28.5427ZM96.3626 20.4677C96.3247 19.1877 95.8983 18.1995 95.0834 17.503C94.2874 16.7878 93.1502 16.4301 91.672 16.4301C90.2316 16.4301 89.1134 16.7972 88.3174 17.5313C87.5214 18.2654 87.1045 19.2442 87.0666 20.4677H96.3626Z" fill="#00023B"/>
<path d="M106.949 28.5427C106.002 28.5427 104.997 28.4204 103.936 28.1757C102.875 27.9498 102.041 27.6392 101.434 27.2439V24.8158C102.173 25.2487 103.026 25.6063 103.993 25.8887C104.959 26.1522 105.897 26.284 106.807 26.284C107.831 26.284 108.579 26.1616 109.053 25.9169C109.527 25.6722 109.764 25.2769 109.764 24.7311C109.764 24.317 109.65 23.9876 109.423 23.7429C109.214 23.4793 108.845 23.2441 108.314 23.037C107.802 22.8299 107.025 22.5852 105.983 22.3029C104.865 21.9829 103.974 21.6629 103.31 21.3429C102.666 21.0041 102.173 20.5806 101.832 20.0724C101.51 19.5642 101.349 18.9054 101.349 18.096C101.349 16.7972 101.861 15.8184 102.884 15.1596C103.926 14.4819 105.319 14.1431 107.063 14.1431C107.973 14.1431 108.863 14.2278 109.735 14.3972C110.607 14.5666 111.308 14.8019 111.839 15.1031V17.4748C111.289 17.1548 110.607 16.9007 109.792 16.7125C108.996 16.5242 108.181 16.4301 107.347 16.4301C106.343 16.4301 105.575 16.5525 105.045 16.7972C104.514 17.0419 104.249 17.4748 104.249 18.096C104.249 18.4912 104.362 18.8112 104.59 19.0559C104.817 19.3006 105.177 19.5171 105.67 19.7053C106.182 19.8747 106.987 20.1006 108.086 20.383C109.811 20.8535 111.005 21.4088 111.668 22.0488C112.351 22.6888 112.692 23.5735 112.692 24.7028C112.692 25.8699 112.209 26.8016 111.242 27.4981C110.275 28.1945 108.845 28.5427 106.949 28.5427Z" fill="#00023B"/>
<path d="M116.224 28.1204C115.769 28.1204 115.381 27.9698 115.058 27.6686C114.755 27.3675 114.604 26.991 114.604 26.5392C114.604 26.0875 114.765 25.7016 115.087 25.3816C115.409 25.0616 115.788 24.9016 116.224 24.9016C116.679 24.9016 117.067 25.0616 117.389 25.3816C117.712 25.7016 117.873 26.0875 117.873 26.5392C117.873 26.991 117.712 27.3675 117.389 27.6686C117.067 27.9698 116.679 28.1204 116.224 28.1204Z" fill="#019F8C"/>
<path d="M119.968 8.38446H128.326C130.581 8.38446 132.382 8.97738 133.728 10.1632C135.073 11.3303 135.746 12.9584 135.746 15.0478C135.746 17.1936 135.073 18.8406 133.728 19.9888C132.401 21.137 130.6 21.7111 128.326 21.7111H124.289V28.1204H119.968V8.38446ZM127.701 18.1254C130.146 18.1254 131.368 17.0995 131.368 15.0478C131.368 13.8996 131.036 13.0996 130.373 12.6479C129.729 12.1961 128.838 11.9702 127.701 11.9702H124.289V18.1254H127.701Z" fill="#019F8C"/>
<path d="M137.452 8.38446H146.065C148.321 8.38446 150.074 8.94915 151.325 10.0785C152.595 11.1891 153.229 12.7985 153.229 14.9066C153.229 16.3748 152.888 17.6266 152.206 18.6618C151.524 19.6783 150.557 20.4218 149.306 20.8923L153.087 28.1204H148.652L145.156 21.4288H141.773V28.1204H137.452V8.38446ZM145.298 17.843C146.397 17.843 147.259 17.6077 147.885 17.1372C148.529 16.6666 148.851 15.9231 148.851 14.9066C148.851 13.8337 148.539 13.0808 147.913 12.6479C147.288 12.1961 146.416 11.9702 145.298 11.9702H141.773V17.843H145.298Z" fill="#019F8C"/>
<path d="M164.999 28.5439C163.009 28.5439 161.199 28.111 159.569 27.2451C157.958 26.3793 156.688 25.1746 155.76 23.6311C154.831 22.0688 154.367 20.2806 154.367 18.2665C154.367 16.2525 154.831 14.4643 155.76 12.902C156.688 11.3397 157.958 10.1256 159.569 9.25973C161.199 8.39387 163.009 7.96094 164.999 7.96094C166.989 7.96094 168.78 8.39387 170.372 9.25973C171.983 10.1256 173.252 11.3397 174.181 12.902C175.11 14.4643 175.574 16.2525 175.574 18.2665C175.574 20.2806 175.11 22.0688 174.181 23.6311C173.252 25.1746 171.983 26.3793 170.372 27.2451C168.78 28.111 166.989 28.5439 164.999 28.5439ZM164.999 24.5911C166.136 24.5911 167.169 24.337 168.097 23.8287C169.045 23.3017 169.794 22.5676 170.343 21.6264C170.893 20.6665 171.168 19.5465 171.168 18.2665C171.168 17.0054 170.893 15.9042 170.343 14.9631C169.813 14.0031 169.073 13.269 168.126 12.7608C167.197 12.2338 166.155 11.9702 164.999 11.9702C163.824 11.9702 162.762 12.2338 161.815 12.7608C160.886 13.269 160.147 14.0031 159.597 14.9631C159.048 15.9042 158.773 17.0054 158.773 18.2665C158.773 19.5465 159.048 20.6665 159.597 21.6264C160.147 22.5676 160.896 23.3017 161.843 23.8287C162.791 24.337 163.843 24.5911 164.999 24.5911Z" fill="#019F8C"/>
</svg>
