<svg width="24" height="24" viewBox="0 0 24 24" fill="none" xmlns="http://www.w3.org/2000/svg">
<g id="cabels" clip-path="url(#clip0_221_20458)">
<path id="Vector" d="M8.8458 2.55478C8.64836 2.55478 8.48828 2.3947 8.48828 2.19727V0.357516C8.48828 0.160078 8.64836 0 8.8458 0C9.04323 0 9.20331 0.160078 9.20331 0.357516V2.19731C9.20331 2.3947 9.04323 2.55478 8.8458 2.55478Z" fill="black"/>
<path id="Vector_2" d="M11.4542 23.9987H6.23831C6.10669 23.9987 6 23.892 6 23.7603V8.168C6 8.03637 6.10669 7.92969 6.23831 7.92969H11.4542C11.5859 7.92969 11.6925 8.03637 11.6925 8.168V23.7603C11.6925 23.892 11.5859 23.9987 11.4542 23.9987Z" fill="black"/>
<path id="Vector_3" d="M10.835 11.0469V23.999H11.4547C11.5863 23.999 11.693 23.8923 11.693 23.7606V11.2852C11.693 11.1536 11.5863 11.0469 11.4547 11.0469H10.835Z" fill="black"/>
<path id="Vector_4" d="M9.56304 11.0498H8.12988V2.43753C8.12988 2.30591 8.23657 2.19922 8.3682 2.19922H9.32468C9.4563 2.19922 9.56299 2.30591 9.56299 2.43753V11.0498H9.56304Z" fill="black"/>
<path id="Vector_5" d="M8.84668 2.19531V11.0459H9.56326V2.43367C9.56326 2.30205 9.45657 2.19536 9.32495 2.19536L8.84668 2.19531Z" fill="black"/>
<path id="Vector_6" d="M15.8458 4.55478C15.6484 4.55478 15.4883 4.3947 15.4883 4.19727V2.35752C15.4883 2.16008 15.6484 2 15.8458 2C16.0432 2 16.2033 2.16008 16.2033 2.35752V4.19731C16.2033 4.3947 16.0432 4.55478 15.8458 4.55478Z" fill="black"/>
<path id="Vector_7" d="M18.4542 25.9987H13.2383C13.1067 25.9987 13 25.892 13 25.7603V10.168C13 10.0364 13.1067 9.92969 13.2383 9.92969H18.4542C18.5859 9.92969 18.6925 10.0364 18.6925 10.168V25.7603C18.6925 25.892 18.5859 25.9987 18.4542 25.9987Z" fill="black"/>
<path id="Vector_8" d="M17.835 13.0469V25.999H18.4547C18.5863 25.999 18.693 25.8923 18.693 25.7606V13.2852C18.693 13.1536 18.5863 13.0469 18.4547 13.0469H17.835Z" fill="black"/>
<path id="Vector_9" d="M16.563 13.0498H15.1299V4.43753C15.1299 4.30591 15.2366 4.19922 15.3682 4.19922H16.3247C16.4563 4.19922 16.563 4.30591 16.563 4.43753V13.0498H16.563Z" fill="black"/>
<path id="Vector_10" d="M15.8467 4.19531V13.0459H16.5633V4.43367C16.5633 4.30205 16.4566 4.19536 16.3249 4.19536L15.8467 4.19531Z" fill="black"/>
</g>
<defs>
<clipPath id="clip0_221_20458">
<rect width="24" height="24" fill="white"/>
</clipPath>
</defs>
</svg>
