<svg width="16" height="16" viewBox="0 0 16 16" fill="none" xmlns="http://www.w3.org/2000/svg">
<path d="M7.33398 2.66812H2.66732C2.3137 2.66812 1.97456 2.8086 1.72451 3.05864C1.47446 3.30869 1.33398 3.64783 1.33398 4.00145V13.3348C1.33398 13.6884 1.47446 14.0275 1.72451 14.2776C1.97456 14.5276 2.3137 14.6681 2.66732 14.6681H12.0007C12.3543 14.6681 12.6934 14.5276 12.9435 14.2776C13.1935 14.0275 13.334 13.6884 13.334 13.3348V8.66812M12.334 1.66812C12.5992 1.4029 12.9589 1.25391 13.334 1.25391C13.7091 1.25391 14.0688 1.4029 14.334 1.66812C14.5992 1.93334 14.7482 2.29305 14.7482 2.66812C14.7482 3.04319 14.5992 3.4029 14.334 3.66812L8.00065 10.0015L5.33398 10.6681L6.00065 8.00145L12.334 1.66812Z" stroke="#019F8C" stroke-linecap="round" stroke-linejoin="round"/>
</svg>
