<svg width="16" height="16" viewBox="0 0 16 16" fill="none" xmlns="http://www.w3.org/2000/svg">
<path d="M6 10.5C8.48528 10.5 10.5 8.48528 10.5 6C10.5 3.51472 8.48528 1.5 6 1.5C3.51472 1.5 1.5 3.51472 1.5 6C1.5 8.48528 3.51472 10.5 6 10.5Z" stroke="#4170E9" stroke-linecap="round" stroke-linejoin="round"/>
<path d="M10 14.5C12.4853 14.5 14.5 12.4853 14.5 10C14.5 7.51472 12.4853 5.5 10 5.5C7.51472 5.5 5.5 7.51472 5.5 10C5.5 12.4853 7.51472 14.5 10 14.5Z" stroke="#4170E9" stroke-linecap="round" stroke-linejoin="round"/>
<path d="M7.65723 6.15625L9.8427 8.34172" stroke="#4170E9" stroke-linecap="round" stroke-linejoin="round"/>
<path d="M6.15723 7.65625L8.3427 9.84173" stroke="#4170E9" stroke-linecap="round" stroke-linejoin="round"/>
</svg>
