<svg width="21" height="22" viewBox="0 0 21 22" fill="none" xmlns="http://www.w3.org/2000/svg">
<path d="M7.875 14.2812C11.1369 14.2812 13.7812 11.6369 13.7812 8.375C13.7812 5.11307 11.1369 2.46875 7.875 2.46875C4.61307 2.46875 1.96875 5.11307 1.96875 8.375C1.96875 11.6369 4.61307 14.2812 7.875 14.2812Z" stroke="#019F8C" stroke-linecap="round" stroke-linejoin="round"/>
<path d="M13.125 19.5312C16.3869 19.5312 19.0312 16.8869 19.0312 13.625C19.0312 10.3631 16.3869 7.71875 13.125 7.71875C9.86307 7.71875 7.21875 10.3631 7.21875 13.625C7.21875 16.8869 9.86307 19.5312 13.125 19.5312Z" stroke="#019F8C" stroke-linecap="round" stroke-linejoin="round"/>
<path d="M10.0503 8.58203L12.9187 11.4505" stroke="#019F8C" stroke-linecap="round" stroke-linejoin="round"/>
<path d="M8.08154 10.5508L10.95 13.4192" stroke="#019F8C" stroke-linecap="round" stroke-linejoin="round"/>
</svg>
