<svg width="24" height="24" viewBox="0 0 24 24" fill="none" xmlns="http://www.w3.org/2000/svg">
<g id="faq">
<path id="Exclude" fill-rule="evenodd" clip-rule="evenodd" d="M12 21C16.9706 21 21 16.9706 21 12C21 7.02944 16.9706 3 12 3C7.02944 3 3 7.02944 3 12C3 16.9706 7.02944 21 12 21ZM12 18C12.6213 18 13.125 17.4963 13.125 16.875C13.125 16.2537 12.6213 15.75 12 15.75C11.3787 15.75 10.875 16.2537 10.875 16.875C10.875 17.4963 11.3787 18 12 18ZM12.6097 7.06005C12.0035 6.93947 11.3751 7.00135 10.8041 7.23788C10.2331 7.4744 9.74504 7.87494 9.40166 8.38884C9.05828 8.90275 8.875 9.50693 8.875 10.125C8.875 10.4011 9.09886 10.625 9.375 10.625C9.65114 10.625 9.875 10.4011 9.875 10.125C9.875 9.70472 9.99963 9.29387 10.2331 8.94441C10.4666 8.59496 10.7985 8.32259 11.1868 8.16176C11.5751 8.00092 12.0024 7.95884 12.4146 8.04083C12.8268 8.12283 13.2054 8.32521 13.5026 8.6224C13.7998 8.91959 14.0022 9.29822 14.0842 9.71043C14.1662 10.1226 14.1241 10.5499 13.9632 10.9382C13.8024 11.3265 13.53 11.6584 13.1806 11.8919C12.8311 12.1254 12.4203 12.25 12 12.25C11.8674 12.25 11.7402 12.3027 11.6464 12.3964C11.5527 12.4902 11.5 12.6174 11.5 12.75V13.5C11.5 13.7761 11.7239 14 12 14C12.2761 14 12.5 13.7761 12.5 13.5V13.2097C12.9402 13.1384 13.3621 12.9733 13.7362 12.7233C14.2501 12.38 14.6506 11.8919 14.8871 11.3209C15.1236 10.7499 15.1855 10.1215 15.065 9.51534C14.9444 8.90915 14.6467 8.35233 14.2097 7.91529C13.7727 7.47825 13.2158 7.18063 12.6097 7.06005Z" fill="black"/>
</g>
</svg>
