<svg width="16" height="17" viewBox="0 0 16 17" fill="none" xmlns="http://www.w3.org/2000/svg">
<path d="M4.75 7.5C5.99264 7.5 7 6.49264 7 5.25C7 4.00736 5.99264 3 4.75 3C3.50736 3 2.5 4.00736 2.5 5.25C2.5 6.49264 3.50736 7.5 4.75 7.5Z" stroke="white" stroke-linecap="round" stroke-linejoin="round"/>
<path d="M11.25 7.5C12.4926 7.5 13.5 6.49264 13.5 5.25C13.5 4.00736 12.4926 3 11.25 3C10.0074 3 9 4.00736 9 5.25C9 6.49264 10.0074 7.5 11.25 7.5Z" stroke="white" stroke-linecap="round" stroke-linejoin="round"/>
<path d="M4.75 14C5.99264 14 7 12.9926 7 11.75C7 10.5074 5.99264 9.5 4.75 9.5C3.50736 9.5 2.5 10.5074 2.5 11.75C2.5 12.9926 3.50736 14 4.75 14Z" stroke="white" stroke-linecap="round" stroke-linejoin="round"/>
<path d="M11.25 10V13.5" stroke="white" stroke-linecap="round" stroke-linejoin="round"/>
<path d="M13 11.75H9.5" stroke="white" stroke-linecap="round" stroke-linejoin="round"/>
</svg>
