<svg width="24" height="24" viewBox="0 0 24 24" fill="none" xmlns="http://www.w3.org/2000/svg">
<g id="manufacture">
<path id="Exclude" fill-rule="evenodd" clip-rule="evenodd" d="M13 3.73913V9H20.2C20.4122 9 20.6157 9.07726 20.7657 9.21479C20.9157 9.35232 21 9.53884 21 9.73333V20H22.5C22.7761 20 23 20.2239 23 20.5C23 20.7761 22.7761 21 22.5 21H1.5C1.22386 21 1 20.7761 1 20.5C1 20.2239 1.22386 20 1.5 20H3V3.73913C3 3.5431 3.07525 3.3551 3.20921 3.21649C3.34316 3.07787 3.52485 3 3.71429 3H12.2857C12.4752 3 12.6568 3.07787 12.7908 3.21649C12.9247 3.3551 13 3.5431 13 3.73913ZM5.99902 6.25C5.72288 6.25 5.49902 6.47386 5.49902 6.75C5.49902 7.02614 5.72288 7.25 5.99902 7.25H8.99902C9.27517 7.25 9.49902 7.02614 9.49902 6.75C9.49902 6.47386 9.27517 6.25 8.99902 6.25H5.99902ZM6.99902 12.75C6.99902 12.4739 7.22288 12.25 7.49902 12.25H10.499C10.7752 12.25 10.999 12.4739 10.999 12.75C10.999 13.0261 10.7752 13.25 10.499 13.25H7.49902C7.22288 13.25 6.99902 13.0261 6.99902 12.75ZM5.99902 16C5.72288 16 5.49902 16.2239 5.49902 16.5C5.49902 16.7761 5.72288 17 5.99902 17H8.99902C9.27517 17 9.49902 16.7761 9.49902 16.5C9.49902 16.2239 9.27517 16 8.99902 16H5.99902ZM15.999 16.5C15.999 16.2239 16.2229 16 16.499 16H17.999C18.2752 16 18.499 16.2239 18.499 16.5C18.499 16.7761 18.2752 17 17.999 17H16.499C16.2229 17 15.999 16.7761 15.999 16.5ZM16.499 12.25C16.2229 12.25 15.999 12.4739 15.999 12.75C15.999 13.0261 16.2229 13.25 16.499 13.25H17.999C18.2752 13.25 18.499 13.0261 18.499 12.75C18.499 12.4739 18.2752 12.25 17.999 12.25H16.499Z" fill="black"/>
</g>
</svg>
