<svg width="26" height="26" viewBox="0 0 26 26" fill="none" xmlns="http://www.w3.org/2000/svg">
<path d="M6.09375 7.53125C6.76685 7.53125 7.3125 7.00658 7.3125 6.35938C7.3125 5.71217 6.76685 5.1875 6.09375 5.1875C5.42065 5.1875 4.875 5.71217 4.875 6.35938C4.875 7.00658 5.42065 7.53125 6.09375 7.53125Z" fill="#019F8C"/>
<path d="M13 7.53125C13.6731 7.53125 14.2188 7.00658 14.2188 6.35938C14.2188 5.71217 13.6731 5.1875 13 5.1875C12.3269 5.1875 11.7812 5.71217 11.7812 6.35938C11.7812 7.00658 12.3269 7.53125 13 7.53125Z" fill="#019F8C"/>
<path d="M19.9062 7.53125C20.5793 7.53125 21.125 7.00658 21.125 6.35938C21.125 5.71217 20.5793 5.1875 19.9062 5.1875C19.2332 5.1875 18.6875 5.71217 18.6875 6.35938C18.6875 7.00658 19.2332 7.53125 19.9062 7.53125Z" fill="#019F8C"/>
<path d="M6.09375 14.1719C6.76685 14.1719 7.3125 13.6472 7.3125 13C7.3125 12.3528 6.76685 11.8281 6.09375 11.8281C5.42065 11.8281 4.875 12.3528 4.875 13C4.875 13.6472 5.42065 14.1719 6.09375 14.1719Z" fill="#019F8C"/>
<path d="M13 14.1719C13.6731 14.1719 14.2188 13.6472 14.2188 13C14.2188 12.3528 13.6731 11.8281 13 11.8281C12.3269 11.8281 11.7812 12.3528 11.7812 13C11.7812 13.6472 12.3269 14.1719 13 14.1719Z" fill="#019F8C"/>
<path d="M19.9062 14.1719C20.5793 14.1719 21.125 13.6472 21.125 13C21.125 12.3528 20.5793 11.8281 19.9062 11.8281C19.2332 11.8281 18.6875 12.3528 18.6875 13C18.6875 13.6472 19.2332 14.1719 19.9062 14.1719Z" fill="#019F8C"/>
<path d="M6.09375 20.8125C6.76685 20.8125 7.3125 20.2878 7.3125 19.6406C7.3125 18.9934 6.76685 18.4688 6.09375 18.4688C5.42065 18.4688 4.875 18.9934 4.875 19.6406C4.875 20.2878 5.42065 20.8125 6.09375 20.8125Z" fill="#019F8C"/>
<path d="M13 20.8125C13.6731 20.8125 14.2188 20.2878 14.2188 19.6406C14.2188 18.9934 13.6731 18.4688 13 18.4688C12.3269 18.4688 11.7812 18.9934 11.7812 19.6406C11.7812 20.2878 12.3269 20.8125 13 20.8125Z" fill="#019F8C"/>
<path d="M19.9062 20.8125C20.5793 20.8125 21.125 20.2878 21.125 19.6406C21.125 18.9934 20.5793 18.4688 19.9062 18.4688C19.2332 18.4688 18.6875 18.9934 18.6875 19.6406C18.6875 20.2878 19.2332 20.8125 19.9062 20.8125Z" fill="#019F8C"/>
</svg>
