<svg width="19" height="17" viewBox="0 0 19 17" fill="none" xmlns="http://www.w3.org/2000/svg">
<path d="M19 0.581478L15.9949 15.7325C15.9949 15.7325 15.5747 16.7832 14.4189 16.2789L7.48436 10.9624L4.9628 9.74367L0.718062 8.31465C0.718062 8.31465 0.066642 8.08358 0.00355054 7.57924C-0.0595409 7.07491 0.739092 6.80177 0.739092 6.80177L17.6129 0.182425C17.6129 0.182425 18.9999 -0.426933 18.9999 0.581742" fill="white"/>
<path d="M6.95159 15.5629C6.95159 15.5629 6.74917 15.544 6.4968 14.7454C6.24483 13.9469 4.96289 9.7442 4.96289 9.7442L15.1545 3.27206C15.1545 3.27206 15.743 2.91481 15.722 3.27206C15.722 3.27206 15.827 3.33515 15.5117 3.62932C15.1966 3.92361 7.50561 10.837 7.50561 10.837" fill="#D2E5F1"/>
<path d="M10.1439 13.0016L7.40115 15.5024C7.40115 15.5024 7.18664 15.6651 6.95215 15.5631L7.47739 10.918" fill="#B5CFE4"/>
</svg>
