<svg width="22" height="23" viewBox="0 0 22 23" fill="none" xmlns="http://www.w3.org/2000/svg">
<path d="M11 21.5H20.3337C20.3337 20.2623 19.842 17.742 18.9668 16.8668C18.0917 15.9917 16.9047 15.5 15.667 15.5H6.33366C5.09598 15.5 3.909 15.9917 3.03383 16.8668C2.15866 17.742 1.66699 20.2623 1.66699 21.5H11Z" fill="white"/>
<path d="M11.0003 10.8333C13.5777 10.8333 15.667 8.744 15.667 6.16667C15.667 3.58934 13.5777 1.5 11.0003 1.5C8.423 1.5 6.33366 3.58934 6.33366 6.16667C6.33366 8.744 8.423 10.8333 11.0003 10.8333Z" fill="white"/>
<path d="M11 21.5H20.3337C20.3337 20.2623 19.842 17.742 18.9668 16.8668C18.0917 15.9917 16.9047 15.5 15.667 15.5H6.33366C5.09598 15.5 3.909 15.9917 3.03383 16.8668C2.15866 17.742 1.66699 20.2623 1.66699 21.5H11Z" stroke="#333333" stroke-width="1.5" stroke-linecap="round" stroke-linejoin="round"/>
<path d="M11.0003 10.8333C13.5777 10.8333 15.667 8.744 15.667 6.16667C15.667 3.58934 13.5777 1.5 11.0003 1.5C8.423 1.5 6.33366 3.58934 6.33366 6.16667C6.33366 8.744 8.423 10.8333 11.0003 10.8333Z" stroke="#333333" stroke-width="1.5" stroke-linecap="round" stroke-linejoin="round"/>
</svg>
