<svg width="44" height="44" viewBox="0 0 44 44" fill="none" xmlns="http://www.w3.org/2000/svg">
<path d="M23.7603 23.3295H40.2912C40.6649 23.3293 41.0232 23.1909 41.2873 22.9448C41.5514 22.6987 41.6998 22.365 41.6998 22.017C41.6998 21.6691 41.5514 21.3354 41.2873 21.0893C41.0232 20.8432 40.6649 20.7048 40.2912 20.7046L23.7603 20.7046V5.31165C23.7601 4.9637 23.6115 4.63008 23.3471 4.38412C23.0828 4.13817 22.7245 4 22.3508 4C21.9771 4 21.6187 4.13817 21.3544 4.38412C21.0901 4.63008 20.9415 4.9637 20.9413 5.31165L20.9413 20.7046H4.41039C4.22521 20.7045 4.04183 20.7383 3.87072 20.8042C3.69961 20.8702 3.54413 20.9668 3.41315 21.0887C3.28217 21.2106 3.17827 21.3553 3.10738 21.5146C3.03649 21.6739 3 21.8446 3 22.017C3 22.1895 3.03649 22.3602 3.10738 22.5195C3.17827 22.6788 3.28217 22.8235 3.41315 22.9454C3.54413 23.0673 3.69961 23.1639 3.87072 23.2299C4.04183 23.2958 4.22521 23.3296 4.41039 23.3295L20.9413 23.3295V38.7224C20.9415 39.0704 21.0901 39.404 21.3544 39.65C21.6187 39.8959 21.9771 40.0341 22.3508 40.0341C22.7245 40.0341 23.0828 39.8959 23.3471 39.65C23.6115 39.404 23.7601 39.0704 23.7603 38.7224L23.7603 23.3295Z" fill="#019F8C"/>
</svg>
